<svg id="Layer_1" enable-background="new 0 0 512 512" height="512" viewBox="0 0 512 512" width="512" xmlns="http://www.w3.org/2000/svg"><path d="m423.938 88.062c-44.858-44.858-104.5-69.562-167.938-69.562s-123.08 24.704-167.938 69.562-69.562 104.5-69.562 167.938 24.704 123.08 69.562 167.938 104.5 69.562 167.938 69.562 123.08-24.704 167.938-69.562 69.562-104.5 69.562-167.938-24.704-123.08-69.562-167.938zm-167.938 380.438c-117.173 0-212.5-95.327-212.5-212.5s95.327-212.5 212.5-212.5 212.5 95.327 212.5 212.5-95.327 212.5-212.5 212.5zm-36.25-302.485v179.971c0 6.903-5.597 12.5-12.5 12.5s-12.5-5.597-12.5-12.5v-179.971c0-6.903 5.597-12.5 12.5-12.5s12.5 5.596 12.5 12.5zm97.5 0v179.971c0 6.903-5.597 12.5-12.5 12.5s-12.5-5.597-12.5-12.5v-179.971c0-6.903 5.597-12.5 12.5-12.5s12.5 5.596 12.5 12.5z"/></svg>